<svg width="14" height="14" viewBox="0 0 14 14" fill="none" xmlns="http://www.w3.org/2000/svg">
<path d="M13.038 12.5641L10.4964 10.0226C11.4441 8.96 12.0328 7.55282 12.0328 6.01641C12.0328 2.69949 9.33334 0 6.01641 0C2.69949 0 0 2.69949 0 6.01641C0 9.33333 2.69949 12.0328 6.01641 12.0328C7.19385 12.0328 8.28513 11.6882 9.20411 11.1138L11.8462 13.7559C12.0041 13.9138 12.2195 14 12.4349 14C12.6503 14 12.8656 13.9138 13.0236 13.7559C13.3682 13.4256 13.3682 12.8944 13.038 12.5641ZM1.68 6.01641C1.68 3.63282 3.61846 1.68 6.01641 1.68C8.41436 1.68 10.3385 3.63282 10.3385 6.01641C10.3385 8.4 8.4 10.3528 6.01641 10.3528C3.63282 10.3528 1.68 8.41436 1.68 6.01641Z" fill="#C2C2C2"/>
</svg>
