<svg width="20" height="19" viewBox="0 0 20 19" fill="none" xmlns="http://www.w3.org/2000/svg">
<path d="M16.2526 0.626953H3.74737C1.68421 0.626953 0 2.31116 0 4.37432V14.8585C0 16.9217 1.68421 18.6059 3.74737 18.6059H16.2526C18.3158 18.6059 20 16.9217 20 14.8585V4.37432C20 2.31116 18.3158 0.626953 16.2526 0.626953ZM3.74737 2.43748H16.2526C17.3263 2.43748 18.1895 3.30064 18.1895 4.37432V13.427L14.5263 9.4059C14.4211 9.27958 14.2316 9.27958 14.1053 9.4059L10.5895 13.3006C10.4842 13.4059 10.2947 13.3217 10.3368 13.1743L10.8 11.1112C10.8211 11.027 10.8 10.9427 10.7368 10.8796L7.2 6.81643C7.05263 6.62695 6.75789 6.62695 6.61053 6.81643L1.81053 12.3112V4.37432C1.81053 3.30064 2.67368 2.43748 3.74737 2.43748Z" fill="#D1D0D0"/>
</svg>
