<svg width="20" height="20" viewBox="0 0 20 20" fill="none" xmlns="http://www.w3.org/2000/svg">
<path d="M18.3525 1.6469C16.1564 -0.549176 12.5948 -0.549176 10.3975 1.64815L1.64815 10.3975C-0.549176 12.5948 -0.549176 16.1564 1.6469 18.3525C3.84298 20.5485 7.40458 20.5498 9.60191 18.3525L11.4549 16.552C10.4587 16.5301 9.54941 16.2051 8.78072 15.6796L7.83454 16.5851C6.61401 17.8056 4.63542 17.8056 3.41489 16.5851C2.19561 15.3658 2.19561 13.386 3.41614 12.1655L12.1655 3.41614C13.386 2.19561 15.3646 2.19561 16.5839 3.41614C17.8044 4.63667 17.8056 6.61401 16.5851 7.83454L12.2248 12.2248C11.8586 12.591 11.2655 12.591 10.8993 12.2248C10.5331 11.8586 10.5331 11.2655 10.8993 10.8993L14.1915 7.57581C14.4359 7.33146 14.4372 6.93649 14.1915 6.69213L13.3079 5.80845C13.0635 5.5641 12.6685 5.5641 12.4242 5.80845L9.13194 9.13194C7.78955 10.4743 7.78955 12.651 9.13194 13.9922C10.4743 15.3346 12.651 15.3346 13.9922 13.9922L18.3525 9.60191C20.5479 7.40458 20.5479 3.84298 18.3525 1.6469Z" fill="#D1D0D0"/>
</svg>
